<svg xmlns="http://www.w3.org/2000/svg" xmlns:xlink="http://www.w3.org/1999/xlink" viewBox="0 0 862.94 659.75"><defs><style>.cls-1{fill:#d90429;}.cls-2{fill:url(#linear-gradient);}.cls-3{fill:#2b2d42;}</style><linearGradient id="linear-gradient" x1="68.53" y1="437.43" x2="931.47" y2="437.43" gradientUnits="userSpaceOnUse"><stop offset="0" stop-color="#8d99ae"/><stop offset="0.66" stop-color="#edf2f4"/></linearGradient></defs><g id="Layer_1" data-name="Layer 1"><path class="cls-1" d="M199.61,641.66C326.86,758.19,500.88,829.87,500.88,829.87s172.46-75.19,305.19-207.63L752,602.67c-112.7,124.9-261.5,194.4-261.5,194.4-1.54,1.25-169.76-64.38-285.4-162.36C203.61,636.22,196.39,638.53,199.61,641.66ZM918.37,301.8c-55.07-180-339.42-168.9-411.85-6.53C425.27,119.77,145.26,133.78,85,317.13l35.62,21.3c75.54-180.58,299.68-137.37,385.82,5.05C613.93,196,779,123.62,918.37,301.8Z" transform="translate(-68.53 -170.13)"/><path class="cls-2" d="M930.81,396c-221.11-98.88-512.19,93.58-721.25,30.85-1.51-12.52-4.71-23.66-7.11-35.87.64-.38,1.26-.79,1.88-1.19C450.09,465.2,667.7,220.55,910.7,317.22c4,1.41,4.79-6.57,2.08-7.9-233.55-99.94-462,133.91-699.63,74.2,36.28-27.82,47.34-80.89,24.26-120.44-3.85-6.8-10-13.87-18-13.45-6,.33-10.79,4.84-14.44,9.43-23.59,29.82-23,70.38-15.45,105.88,2,5.31-2.29,8.74-6.31,11.34C147,366.82,112.76,349.6,78.85,332.79,59.09,394.32,68.53,462.6,100.18,519.35a442.5,442.5,0,0,0,129.67,57.7c2.26,22.13-22.45,38.64-42.84,35.4,24.75-12.21,14.94-50-12.89-49.52-19.9-.48-34,21.53-24.09,38.57l-.16,0c29.72,43.25,97.59,22.36,92.11-21.37,199.65,47,367.1-69.42,574.62,27.49.75-1.84,7.69-6.48,3.65-8.72C765.94,575.73,714,556.19,653.16,556.69,518.45,552.4,375,606.21,240.39,568c-2-12.25-4.76-24.39-7.22-36.55C455.28,570.64,669,448,888.23,524.31c2.36,1,4.39-3.2,2-4.37C790.36,470.28,617.16,494,510,517.43c-88.42,14.78-179.29,14.8-268.63,7.8,12.55-6.17,24.29-17.7,24.87-37.45,217.09,38.54,440.53-110.22,652.15-21.62,3.8,1.78,5.52-6.6,3.52-8.12-66.4-32.71-142.61-30.32-214.62-25.26-146.55,15.85-292,64.4-441,46.68-.46-11.66-6.11-27.94-20.66-36.86,217.79,41.59,463.46-130,681.58-41.32C929.7,402.51,932.86,397.53,930.81,396ZM192.42,304c15.73-59.87,88.34-8.4,4.49,60.69C192.3,347.61,190.23,316.7,192.42,304ZM142.23,494.14c-6.56-12.55-6.07-27.47-.15-40.19q15.4,6.14,31.14,11.36c-7.73,16.24-5.63,47.29,17.75,46.81-10.92-9.11-13.28-30.84-5-42.72q12.85,3.94,25.88,7.25c3.38,15,6.87,30.87,9.94,45.52C194.05,516.54,167.63,506.86,142.23,494.14ZM192,463.07a30.12,30.12,0,0,1,15.43-5.71c.86,3.74,1.74,7.6,2.63,11.54C204.28,467.19,198.21,465.21,192,463.07Zm9.22-26.78c-1.05,2.2-3.5,3.36-5.7,4.51a48.82,48.82,0,0,0-18.3,16.92c-10.55-4-21-8.2-30.73-12.27,5.72-9.43,13-17.74,20.84-25.45,10.81,3.79,22.36,7.61,34.14,11.17A8.12,8.12,0,0,1,201.25,436.29ZM172,415.63A163.86,163.86,0,0,1,193.83,399q3,12.72,6.08,25.44C189.9,421.79,181,418.93,172,415.63ZM106,380.84c1.71-3,3.89-20.21,8.65-18.21,6.83,4.3,31.4,12,60.44,19.73-9.75,7.31-19.4,14.88-27.86,23.32-11.36-5.41-30.74-11.52-41.33-19.95C105.85,385.72,105,384.14,106,380.84ZM102,396.71c1-4.14,22.6,8.57,40.27,14.13a90.89,90.89,0,0,0-16.7,25.57c-15.1-6.69-25.21-11.54-25.21-11.54C98.46,416.22,101.46,402.6,102,396.71Zm-.62,73.51c-1.56-39.84-9.8-38.67,21-24.54a76.07,76.07,0,0,0-.89,37.26C109.05,475.33,102.56,473.56,101.39,470.22Zm119.52,91.55c-40.16-15.43-110-47.91-111-50.54-8.88-37-9.1-28.61,15.85-15.61,15.27,37,63.09,43.14,98.09,36.67,2.11,10.65,3.72,21.37,4.94,32.16C226,563.57,223.39,562.67,220.91,561.77ZM157.48,513a63.78,63.78,0,0,1-4.92-4.52A337.16,337.16,0,0,0,213,527.76C193.45,530.76,172.58,525.39,157.48,513Zm93.6-24.79s4.68,20.49-20.22,33.41c-1.19-7-7.35-35.09-9-42.51q14.17,3.36,28.49,6C250.62,486.13,250.86,487.15,251.08,488.22Zm-21.53-14.43c-3-.57-6.07-1.28-9.3-2.09l-3.19-14.65c6.32.33,22.19,2.89,30.33,19.86Q238.45,475.53,229.55,473.79Zm-17.2-39.45,5.41,1.51C214.8,435.82,213.86,436.12,212.35,434.34Z" transform="translate(-68.53 -170.13)"/><path class="cls-3" d="M338.45,637.52a16.24,16.24,0,0,1-12.32-3.63,16.44,16.44,0,0,1-6.57-11.27q-1.55-11.93,8.69-44.39l15.56-45.56q-8.85-9.74-9.87-17.59-.92-7,5.05-7.82,7.71-1,8.94,8.34.6,4.6-1,13.36,4.48,3.82,7.47,6.6c2,1.86,3.51,3.36,4.58,4.51q7.05,7.62,7.85,13.72.68,5.15-3.95,8.78a18.3,18.3,0,0,1-9.41,4,22.59,22.59,0,0,1-7.93-.63q-5.64-1-6-3.9a.28.28,0,0,1,0-.21.28.28,0,0,0,0-.21c-.16.2,1.2.81,4.09,1.81a18.4,18.4,0,0,0,8.41,1.11,11.7,11.7,0,0,0,6.43-3,6.59,6.59,0,0,0,2.32-6q-1.15-8.81-15-20.79l-12.6,45Q325.86,608.57,328,625q1.56,12.06,9.42,11c3.44-.45,7.39-2.48,11.88-6.09a11,11,0,0,1-4.46,4.85A17,17,0,0,1,338.45,637.52Zm6.81-109.58a30.23,30.23,0,0,0,.77-12.09q-1-7.86-6-7.2c-1.53.2-2.09,1.92-1.66,5.17A25.65,25.65,0,0,0,345.26,527.94Z" transform="translate(-68.53 -170.13)"/><path class="cls-3" d="M381.64,565.08q-9.61,1.24-11.24-11.21c-.16-1.27-.27-2.65-.33-4.16a41.5,41.5,0,0,1,.12-4.91,5.35,5.35,0,0,1-1.24-1,12.8,12.8,0,0,1-1.32-1.68,4.74,4.74,0,0,1,1.21.32,7.82,7.82,0,0,0,1.64.41q.61-7,6.38-14.47,6.22-8.25,12.6-9.08c1-.13,1.51-.06,1.54.21s-.55.72-1.72,1.6a31.59,31.59,0,0,0-8.39,9.64,43.8,43.8,0,0,0-5,12.22l.31.24q6.49-.86,12.73-8t5.39-13.65a6.52,6.52,0,0,0-1.56-3.51,3.42,3.42,0,0,0-3.19-1.24,11.68,11.68,0,0,0-5.82,3,20.09,20.09,0,0,1-3.53,2.53c-.18,0-.27,0-.28-.11q-.23-1.62,4.28-4.14a18.93,18.93,0,0,1,6.15-2.45,7.94,7.94,0,0,1,5.45,1.08,6.09,6.09,0,0,1,2.73,4.61q.95,7.17-7.53,15.17-7.62,7-15.39,8.75a19.81,19.81,0,0,0-.27,6.37q1.46,11.25,9.59,10.19,6.22-.81,12.3-7.11a39.67,39.67,0,0,0,8.07-12.07c.65-1.37,1.24-2.09,1.79-2.16.08,0,.14.07.17.25a7.6,7.6,0,0,1-.77,2.58A45.61,45.61,0,0,1,396.29,557Q388.82,564.16,381.64,565.08Z" transform="translate(-68.53 -170.13)"/><path class="cls-3" d="M408,561.93c-.82.11-1.3-.43-1.45-1.6l0-.27c.2-1.31.38-2.95.54-4.9s.34-4.22.56-6.82.47-5.87.78-9.81.73-8.52,1.25-13.73l-2.14-3.72c-.6-1.11-1.2-2.19-1.79-3.21-.09-.63.6-1.32,2.07-2.06q6.43-3.46,8.33-3.71t2.19,1q-.18-.39-4.65,18.24l.16,1.22c.33,2.53.09,3.84-.72,4-.09,0-.25-.11-.46-.35-.43,2.35-.85,4.58-1.26,6.71s-.77,4.21-1.05,6.26q2.34-5.26,5-10.15t5.47-9.25q8.64-13.11,15.27-14,3.12-.42,3.43,2a6.58,6.58,0,0,1-.14,2.08q-.48,4.75-1.47,12t-2.37,16.77A49.64,49.64,0,0,0,446,534.52c.38-.6.67-.91.85-.93s.43.13.47.48a2.3,2.3,0,0,1-.28,1,52.44,52.44,0,0,1-12.31,18.68,2,2,0,0,1-1.65,1c-.64.09-1-.23-1.09-1,0-.18,0-1,.08-2.56s.16-3.67.26-6.44c.19-2,.35-4,.46-6s.22-3.93.33-6q.08-6.75-.3-11.8a26.82,26.82,0,0,0-5.86,5.24,100.86,100.86,0,0,0-6.66,8.65q-3.24,4.69-5.54,8.78a57.94,57.94,0,0,0-3.63,7.56,32.92,32.92,0,0,0-1.82,8.23C409.13,561,408.68,561.84,408,561.93Zm2-40.9.63-4.63a12.33,12.33,0,0,1-2.4,1.69Z" transform="translate(-68.53 -170.13)"/><path class="cls-3" d="M465,554.91q-6.78.89-7.85-7.38-.76-6,1.06-15.15a8.42,8.42,0,0,0-2.24-3,10,10,0,0,0-3.9-1.9l-7.7-2a2.91,2.91,0,0,1-2.14-2.62,2.33,2.33,0,0,1,1.57-2.82l3.65-.47A75.11,75.11,0,0,0,462.32,516l.1-.28,6.37-21,2.74-9.58c.51-1.72,2.17-2.77,5-3.13,1.9-.25,2.9.08,3,1,.05.37-1.13,4.42-3.51,12.17s-3.77,12-4.16,12.53l-2,2.46-1.2,3.47,6.67-3.28,12.22-6.07q.53-.21.93-.33a3.39,3.39,0,0,1,.53-.13c.36-.05.55,0,.58.2q.3,2.29-21.75,11.78-2,5.64-3.43,9.61c-.95,2.65-1.63,4.78-2.06,6.4a44.84,44.84,0,0,0-1.43,16.58q.58,4.47,3.56,4.08,3.66-.48,8.95-6.4l5.41-6.08a.37.37,0,0,1,.46.36,3.26,3.26,0,0,1-.25,1.27,31.12,31.12,0,0,1-6,7.81Q468,554.53,465,554.91Zm-6.49-24.5q.58-2.83,1.37-5.83t1.75-6.15c-2.19.84-4.4,1.63-6.65,2.38s-4.47,1.46-6.68,2.11Q455.86,525.67,458.55,530.41Z" transform="translate(-68.53 -170.13)"/><path class="cls-3" d="M488.15,550.39a5.35,5.35,0,0,1-2.56-.56q-1.6-.69-1.71-1.5l1.15-3.87q1.62-5.58,3.06-10.94a81.31,81.31,0,0,0,2.12-10.68,41.26,41.26,0,0,0-.13-11.55,24.57,24.57,0,0,1-1.25,4.16c-.68,1.83-1.61,4.16-2.81,7s-2.13,5-3,6.81-1.66,3.27-2.25,4.35c0,.09-.08.15-.26.17q-.68.09-.75-.45a.55.55,0,0,1,.09-.42l3.33-7.19a89.68,89.68,0,0,0,4.44-11.39,55,55,0,0,0,2-8.87q.34-3.63,2.25-3.88c1.44-.19,2.4,1.53,2.87,5.14q1.27,9.75-3.11,24.79,6.12-10.17,8.57-13.52,6.65-9.25,11-9.83c2.89-.37,4.59,1.33,5.08,5.13a11.52,11.52,0,0,1-1.27,7.19c-1.39,2.75-2.8,4.22-4.25,4.41-.27,0-.43-.13-.47-.49l1.05-3.58a15.28,15.28,0,0,0,.73-6q-.48-3.66-2.78-3.36-3.53.46-9.49,9.64-2.55,3.78-4.33,7a59.76,59.76,0,0,0-2.84,5.67c-.06.29-.37,1.43-.93,3.43s-1.25,4.94-2,8.8l-.84,4.11A1,1,0,0,1,488.15,550.39Z" transform="translate(-68.53 -170.13)"/><path class="cls-3" d="M523.21,544.59c-1,.13-1.53-.08-1.6-.62q-.63-4.89,2.31-13,3.65-10.11,4.08-13.07a40.84,40.84,0,0,0-.12-11.55,24.57,24.57,0,0,1-1.25,4.16c-.68,1.83-1.62,4.16-2.81,7s-2.13,5-3,6.81-1.67,3.27-2.26,4.35c0,.09-.07.15-.25.17q-.69.09-.75-.45l3.16-7.44a85.47,85.47,0,0,0,4.05-11.2,60.87,60.87,0,0,0,1.87-9q.35-3.63,2.79-3.95t3.18,5.38a42.69,42.69,0,0,1,.15,7.55,81.65,81.65,0,0,1-1.36,10.65L528,538.87a82.73,82.73,0,0,0,8.55-9.93,62.39,62.39,0,0,0,7-12.35l.63-1.46q.21-10.08,2-12.94c.28-.68,1-1.1,2.31-1.27,1.9-.24,2.91.13,3,1.12a12.17,12.17,0,0,1-1.6,7.79,70.72,70.72,0,0,0-.41,20.17c.57,4.33,2.2,6.32,4.91,6q2-.27,4.44-2.92a23.77,23.77,0,0,0,2.28-2.64c.27,0,.44.22.51.76l0,.27q-3.76,7.11-9.45,7.85T545.15,530c-.22-1.63-.38-3.4-.49-5.31s-.22-4-.34-6.29q-3.87,10.43-14.46,21.17c-.41.42-1,1-1.7,1.73s-1.55,1.54-2.45,2.39A4.41,4.41,0,0,1,523.21,544.59Z" transform="translate(-68.53 -170.13)"/><path class="cls-3" d="M393.55,697.37c-1.05.18-2.39-.3-4-1.45a4.5,4.5,0,0,1-.58-1.79q-.66-3.68.77-15.55,2.08-20.37-2.55-46.6-3.78-21.5-13-19.88-5,.87-11.12,9-5.67,7.75-6.19,7.85c-.52.09-.84-.21-1-.91a11.79,11.79,0,0,1,.2-1.93q2.13-6.32,9.77-13.62,7.54-7.82,13.31-8.84,11-1.93,14.76,19.3,2.82,16,.39,35.9,7.65-27,21.35-47.57,18-26.7,40-30.59,13.38-2.35,15.69,10.75c.5,2.8.39,4.26-.31,4.38-.35.06-.84-.66-1.46-2.17q-2.26-6.63-4.53-8.8c-1.52-1.45-4.37-1.8-8.57-1.06q-17,3-31.36,21.49a109.94,109.94,0,0,0-17.31,35.23q-4.32,15.36-2.8,22.39l.13.79q.56,3.15-2.9,17.28-3.79,15.27-6.67,15.77a1.61,1.61,0,0,0-1,.45Z" transform="translate(-68.53 -170.13)"/><path class="cls-3" d="M456,677.42q-13.38,2.37-15.73-11-1.77-10,.8-26.1l-3.43,8.18c-1.59,4.25-2.83,6.45-3.7,6.6q-.52.09-.66-.69a6.06,6.06,0,0,1,.88-4.22q4.77-9.75,9.5-27.36.42-2.24,1.3-5.64t2.3-7.7c.59-1.73,2.64-2.9,6.13-3.52,3-.52,4.62.09,4.92,1.84q.51,2.88-1.23,8.33-1.44,5.65-3.39,6.81-8.83,29.68-6.56,42.53,1.53,8.65,7.3,7.64,9.44-1.67,18.31-17.29,9.39-15.72,9.13-15.68c.35-.06.57.17.66.7a11.79,11.79,0,0,1-.2,1.93,61.22,61.22,0,0,1-4.4,9.56q-2.78,4.95-6.4,10.46Q462,676.37,456,677.42Zm.88-86.95q-5.25.93-6.21-4.58c-.31-1.74.4-4.08,2.14-7a21,21,0,0,1,5-6.15q8.65-6.12,10.49-6.45c.52-.09.81,0,.88.38q.13.8-4.69,8.67c-.29.42-1.13,3.36-2.5,8.83C460.69,588,459,590.1,456.89,590.47Z" transform="translate(-68.53 -170.13)"/><path class="cls-3" d="M537.37,671.18q-7.08,1.26-12.31-5.4a30.09,30.09,0,0,1-5.59-13.34,65.31,65.31,0,0,1-.9-8.9q-.2-5,.09-11-10,39.63-27.61,42.73-10.76,1.89-13.2-12-3.93-22.29,13.36-49.95,17.46-28.23,39-32,10.23-1.8,11.8,7.11,1.95,11-10.8,24.62a104.43,104.43,0,0,0-.75,40.15q2.64,15,9.19,13.79,9.18-1.62,25.64-38.59c.8-1.58,1.46-2.42,2-2.51s.85.21,1,.91a4.24,4.24,0,0,1-.59,2.8Q550.22,668.93,537.37,671.18Zm-46.7-4.2q16.51-2.91,25.51-42.35c-1.34.6-2.55,1.13-3.64,1.59a13.61,13.61,0,0,1-2.95.92c-.7.13-1.09-.07-1.18-.6q-.24-1.31,3.21-3.27l7.29-6.15q-.25-4.56,3.47-12.51,3.69-8.22,8.15-9c1.05-.19,1.71.51,2,2.08a21.44,21.44,0,0,1-.3,6q3.18-6.49,2.21-12-1.06-6-6.57-5.06-13.11,2.31-29.77,32Q481.34,647.81,483.83,662,484.9,668,490.67,667Z" transform="translate(-68.53 -170.13)"/><path class="cls-3" d="M606.28,661.73q-13.12,2.31-15.94-13.68-2-11.53.73-29.6a16.49,16.49,0,0,0-4.63-5.54,19.25,19.25,0,0,0-7.76-3.36l-15.18-3.27a5.68,5.68,0,0,1-4.38-4.91q-.74-4.18,2.8-5.63l7.08-1.25a146.16,146.16,0,0,0,28.55-8.28l.17-.57,10.55-41.34,4.5-18.91q1.28-5.08,9.4-6.53,5.51-1,6,1.65.18,1.07-5.77,24-5.91,23.21-7,24.75l-3.72,5-2,6.85q3.69-2,12.69-7t23.28-12.89c.66-.3,1.26-.54,1.76-.72a10.18,10.18,0,0,1,1-.32c.7-.12,1.08,0,1.14.34q.79,4.47-41.31,24.87-3.44,11.15-5.84,19t-3.44,12.64q-3.78,18.51-1.32,32.41,1.53,8.65,7.3,7.63,7.08-1.25,16.86-13.25l10-12.31a.71.71,0,0,1,.93.65,6.16,6.16,0,0,1-.37,2.5q-3.09,7-11,15.73Q612,660.71,606.28,661.73Zm-14.81-47.14q.9-5.57,2.17-11.47T596.5,591q-6.29,2.73-12.74,5.22t-12.82,4.7Q585.82,605.58,591.47,614.59Zm-.42,108a1.48,1.48,0,0,1-1.61-.66c-.37-.57-.3-1.44.22-2.61q4.77-14.37,3.24-23a12.77,12.77,0,0,0-1.39-3.27,19.63,19.63,0,0,1-1.43-3.53,8.59,8.59,0,0,1,.74-5q1-3.42,2.85-3.74,3.15-.56,7.13,3.61l-.09-.53c.17,0,.4.51.69,1.64s.48,1.94.57,2.46q1.29,7.35-3.87,21a38.29,38.29,0,0,1-2.27,5.53q-1.59,3.26-3.83,7.44A1.53,1.53,0,0,1,591.05,722.55Z" transform="translate(-68.53 -170.13)"/><path class="cls-3" d="M691.82,643.93q-7.08,1.26-12.31-5.4a30.05,30.05,0,0,1-5.6-13.34,67,67,0,0,1-.89-8.9c-.14-3.31-.11-7,.09-11q-10,39.63-27.61,42.73-10.75,1.89-13.2-12-3.94-22.29,13.36-49.95,17.46-28.23,39-32,10.23-1.8,11.8,7.11,2,11-10.8,24.62a104.63,104.63,0,0,0-.76,40.15q2.64,15,9.2,13.79,9.16-1.62,25.63-38.59c.81-1.58,1.47-2.42,2-2.51s.85.21,1,.91a4.3,4.3,0,0,1-.59,2.8Q704.67,641.68,691.82,643.93Zm-46.71-4.2q16.53-2.91,25.52-42.35c-1.34.6-2.55,1.13-3.64,1.59a14,14,0,0,1-3,.92c-.7.13-1.09-.07-1.19-.6q-.23-1.31,3.21-3.27l7.3-6.15c-.18-3,1-7.21,3.47-12.51q3.69-8.22,8.14-9c1-.19,1.72.51,2,2.08a21,21,0,0,1-.29,6q3.18-6.49,2.21-12-1.07-6-6.57-5.06-13.12,2.31-29.78,32-16.74,29.19-14.25,43.34Q639.35,640.75,645.11,639.73Zm34.3-99.87q-7.87,1.38-13.13-1.61t-6.65-10.85a9.51,9.51,0,0,1,1-6.41,6.1,6.1,0,0,1,4.25-3.45c.7-.12,1.15.34,1.33,1.39a10.4,10.4,0,0,1,.13,2.27,10.45,10.45,0,0,0,.13,2.28,9.86,9.86,0,0,0,4.91,7.11,13.26,13.26,0,0,0,9.31,1.47,40.59,40.59,0,0,0,13.51-4.69q5.64-3.29,10.25-10.86a27.74,27.74,0,0,0,2.36-5c.34-1.14.68-1.74,1-1.8.88-.15,1.17.52.9,2q-1.34,12.41-10.11,19.36A42.48,42.48,0,0,1,679.41,539.86Z" transform="translate(-68.53 -170.13)"/><path class="cls-3" d="M598.9,451.38a4.25,4.25,0,0,1-3.53-1.72,5.64,5.64,0,0,1-1.34-3.45q0-3.45,4.26-9.49c2.83-4,20.85-21.75,25.63-26.57s19.57-20.95,21.68-22.82c0,0-3.1-1.68-14.92.18-9.37,1.48-12.9,5.43-13.06,5.43a3.7,3.7,0,0,1-2.31-.86,2.46,2.46,0,0,1-1.09-1.95q0-2.37,3.16-4.2c2.11-1.22,13.26-4.17,15.93-4.53a49.48,49.48,0,0,1,6-.54c1.13,0,10.86.76,13.14,1.4s3.4,1.77,3.4,3.35a4.79,4.79,0,0,1-1.94,3.45c-8.27,7.76-18.18,13.72-26.36,21.63s-14.1,18.19-21.07,27.1A94,94,0,0,1,619.33,432,44.63,44.63,0,0,1,633.68,430c.81,0,2.35.07,4.62.22s4.74.39,7.42.75a35.42,35.42,0,0,1,6.81,1.51c1.86.65,2.8,1.48,2.8,2.48q0,1.08-1.71,2.16a24.19,24.19,0,0,0-7.17-1.62c-2.68-.22-5.15-.32-7.42-.32A61.29,61.29,0,0,0,619,438.77q-10.34,3.56-16.42,10.45a9.36,9.36,0,0,1-1.58,1.51A3.27,3.27,0,0,1,598.9,451.38Z" transform="translate(-68.53 -170.13)"/><path class="cls-3" d="M269.4,533.51q-8.89,1.15-15-3.26t-7.26-13.07q-1.37-10.47,4.87-21.25c.38-.66.72-1,1-1.06s.73.29.83,1.05q-1,3.15-1.74,6.25a27.91,27.91,0,0,0-.88,11,20.56,20.56,0,0,0,6.15,12.53,14.62,14.62,0,0,0,12.68,4q28.47-3.71,53.53-35.46,21.82-28.1,34.5-67.73,12-37.71,8.48-64.81c-.1-.76-.2-1.48-.28-2.17a8.67,8.67,0,0,0-.48-1.9,35.08,35.08,0,0,1-8.11,3.6q-.39,29-10.31,61.34a11.29,11.29,0,0,1,5-2.5,1.82,1.82,0,0,1,2.32,1.78q.65,5-4.87,12.45-5.29,7.41-10,10.33-21.91,55.91-50.86,73.8a33,33,0,0,1-13.65,5.49c-1.67.21-2.58-.29-2.74-1.5s.46-1.76,1.81-2.09,2.75-.82,4.67-1.53,4-1.53,6.4-2.46q16.41-9.09,31.49-32.13a210.84,210.84,0,0,0,11.17-19.17,219.49,219.49,0,0,0,9.51-21.28,26,26,0,0,1-5.08-12.31,23.16,23.16,0,0,1,.4-7.58c.57-2.78,1.84-4.29,3.81-4.55q3.87-.51,6.48,7l.65-.32a234.12,234.12,0,0,0,10.48-63.67q-3.36.9-10.52,2.87t-18.4,4.6q-13.92,3.43-23.76,6.1t-15.36,4.78Q259,391.47,260.88,405.82q1.42,10.94,13.27,20.05a53.61,53.61,0,0,0,22.78,9.54c.94,0,1.42.21,1.46.51.08.61-.49,1-1.7,1.15q-13.21,1.71-25.57-7.79-12.42-10-14.11-23-1.87-14.34,18.47-27.19,15-9.36,42.62-17.82L354.29,351q-.21-6.93-2.31-23.1c-.16-1.21.29-1.89,1.36-2,.14,0,.42.33.83,1a106.88,106.88,0,0,1,2.37,12.9c.22,1.67.4,3.38.55,5.14s.26,3.48.33,5.17c1.48-.5,2.8-1,4-1.45s2.2-.9,3.07-1.32a4,4,0,0,1,2.95-2.24q2.28-.3,3.32,2.35A73.63,73.63,0,0,1,373,359.26q4.59,35.31-11.83,78.22-15.56,40.71-41.43,67.94Q296.28,530,269.4,533.51Zm125-29.24c-.31,0-.5-.25-.57-.85a2.3,2.3,0,0,1,1.49-2.75q2.2-4.46.84-14.93-1.45-11.16-9.71-37.19a236.39,236.39,0,0,1-8.63-39.65,172.59,172.59,0,0,1-.4-38.63q2.7-29.08,15.69-30.77a.4.4,0,0,1,.51.4c.06.45-.26,1-1,1.51q-10.42,7.15-6.06,40.63,1.59,12.3,5.33,28.5t9.59,36.28a58.47,58.47,0,0,1,1.86,9q3.21,24.6-5.3,42.85,10-8.47,31.58-58.08,6.23-14.48,10.79-24.8t7.69-16.53A428.57,428.57,0,0,1,469.3,359q2-14.85,2.46-14.92c.46-.05.77.6.95,2,0,.3.06,1.07.07,2.3s0,2.94,0,5.11a204.41,204.41,0,0,1,24-30.93q18.13-19,31.35-20.76,8.65-1.12,14.5,4.6,5.07,5.13,6.26,14.24a38.47,38.47,0,0,1,.27,3.91c0,1.54,0,3.31,0,5.32-.24,5.29-.88,8.07-1.92,8.36a.94.94,0,0,1-.32-.65,25.36,25.36,0,0,1,.4-5.84,26,26,0,0,0,.31-6.53q-2.07-15.94-18.93-13.75-26.2,3.4-56.07,51.54-.78,27.9-.29,47.64t2,31.14q4.68,36,18.12,34.24,10.71-1.39,24.33-30.27l4.14-9.11c.47-1.14.93-1.74,1.39-1.8.34.26.52.47.54.62a3.86,3.86,0,0,1-.45,1.91Q507.83,477,491,479.19q-23.7,3.07-28.11-30.86-3.09-23.68,4.56-77-5.1,8.77-10.9,20.3t-12.31,25.58q-20.32,43.18-21.73,46.61-11.21,22.55-19.41,32.41Q396.89,503.95,394.39,504.27Z" transform="translate(-68.53 -170.13)"/><path class="cls-3" d="M528.8,467.31c-1.67.22-2.56-.13-2.68-1a31.79,31.79,0,0,1,.43-9.55A75.11,75.11,0,0,1,530,444.45q6.12-17,6.87-22a69.56,69.56,0,0,0-.22-19.43,41,41,0,0,1-2.1,7q-1.71,4.63-4.72,11.73-2.82,6.87-5.12,11.44c-1.53,3.06-2.8,5.5-3.79,7.33,0,.15-.13.25-.43.29-.76.1-1.18-.16-1.26-.76l5.33-12.51a148.83,148.83,0,0,0,6.81-18.84,101,101,0,0,0,3.13-15.12c.39-4.07,2-6.28,4.69-6.63s4.52,2.65,5.35,9a73.48,73.48,0,0,1,.26,12.71,137,137,0,0,1-2.3,17.9l-5.68,31.09A139.19,139.19,0,0,0,551.21,441,105.54,105.54,0,0,0,563,420.24l1.07-2.46q.35-16.95,3.43-21.75c.46-1.14,1.76-1.86,3.89-2.13q4.78-.63,5.11,1.88a20.43,20.43,0,0,1-2.7,13.09,119,119,0,0,0-.68,33.91q1.42,10.94,8.26,10.05,3.4-.45,7.47-4.91a24.59,24.59,0,0,0,4.28-6.24c.46-.06.74.36.86,1.28l.06.45c-2.11,4-4.95,8.87-7.59,11.07a16.9,16.9,0,0,1-8.76,3.92,8,8,0,0,1-7.89-3.25q-3-3.9-4.1-12.33c-.35-2.73-.63-5.71-.81-8.93s-.38-6.74-.57-10.58q-5.44,14.61-18.7,29.59c-1.77,2-3.65,4-5.62,6-2.17,2-4.45,4.28-7,6.92C532.31,466.54,530.91,467,528.8,467.31Z" transform="translate(-68.53 -170.13)"/><path class="cls-3" d="M669.44,444.37q-11.62,1.51-13.13-10.1-1.12-8.65,1.71-22.46l-3.27,6.91q-2.31,5.4-3.45,5.54c-.3,0-.48-.17-.54-.62a5.24,5.24,0,0,1,.92-3.6q4.49-8.22,9.26-23.21.43-1.9,1.34-4.81t2.27-6.55q.87-2.19,5.43-2.79,3.87-.49,4.17,1.78c.22,1.67-.25,4.05-1.39,7.13-1,3.21-2,5.13-3.19,5.74q-8.76,25.23-7.31,36.39c.66,5,2.65,7.3,6,6.87q8.21-1.06,16.46-14.19,8.7-13.17,8.48-13.15.45-.06.54.63a9.15,9.15,0,0,1-.25,1.65,51.76,51.76,0,0,1-4.16,8.07q-2.58,4.15-5.92,8.76Q674.67,443.7,669.44,444.37Zm4.15-74.9c-3,.4-4.76-1-5.18-4.19-.2-1.51.51-3.5,2.12-5.95a18.21,18.21,0,0,1,4.55-5.11q7.7-4.94,9.29-5.15c.46-.06.7.07.74.37s-1.4,2.89-4.38,7.29a59.28,59.28,0,0,0-2.49,7.5Q676.32,369.12,673.59,369.47Z" transform="translate(-68.53 -170.13)"/><path class="cls-3" d="M709.24,449.38q-15.72,2.06-18-15.72t6.87-38q10.68-22.93,27.09-25.07c1.67-.21,2.54,0,2.62.59.06.46-1.31,1.79-4.11,4q-10.27,8.28-17.12,23.31-7.41,16-5.87,27.87,2.4,18.45,16.3,16.64,8.65-1.12,18.24-9.33a90.5,90.5,0,0,0,7.73-7.37,53.92,53.92,0,0,0,6.24-8.11q1-1.51,2.29-3.77a59.62,59.62,0,0,0,2.76-5.46c1.07-2.46,2-3.73,2.75-3.83l.51.39c.06.46-.45,1.84-1.54,4.14a75.47,75.47,0,0,1-7.85,12.72,86.34,86.34,0,0,1-11.37,12.25Q722.21,447.7,709.24,449.38Zm28.26-56.95c-2,.25-3.11-.76-3.4-3a31.11,31.11,0,0,1,.56-6.32,26.36,26.36,0,0,0,.56-8.19q-1.34-10.25-9.54-9.18-4.32.57-10,4.78c-4,2.69-6,4-6.19,4-.61.08-.94-.11-1-.56q-.42-3.2,8.11-7.08a38.12,38.12,0,0,1,11.32-3.79q12.3-1.61,14.23,13.2a28.33,28.33,0,0,1-.44,9.1C740.72,389.85,739.32,392.19,737.5,392.43Z" transform="translate(-68.53 -170.13)"/><path class="cls-3" d="M804,433.8c-4.1.54-7.56-1.18-10.39-5.13A25.89,25.89,0,0,1,789.34,417a56.35,56.35,0,0,1-.42-7.7q0-4.29.5-9.45-10.2,33.76-25.46,35.74-9.35,1.21-10.91-10.85-2.52-19.37,13.46-42.53,16.15-23.64,34.83-26.07,8.88-1.17,9.89,6.58,1.24,9.57-10.26,20.8A90.07,90.07,0,0,0,798.75,418q1.69,13,7.38,12.25,8-1.05,23.6-32.26c.76-1.34,1.36-2,1.82-2.09s.72.21.8.82a3.68,3.68,0,0,1-.62,2.4Q815.2,432.36,804,433.8ZM764,428.36q14.35-1.86,23.64-35.51c-1.17.47-2.24.88-3.2,1.23a11.2,11.2,0,0,1-2.57.68c-.61.08-.94-.1-1-.56-.1-.76.86-1.65,2.89-2.69l6.53-5q0-3.93,3.48-10.65c2.33-4.62,4.79-7.11,7.37-7.44.91-.12,1.45.5,1.63,1.87a18.2,18.2,0,0,1-.48,5.16q3-5.49,2.37-10.27-.69-5.24-5.47-4.62Q787.74,362,772.23,387q-15.57,24.5-14,36.8C758.72,427.27,760.61,428.8,764,428.36Zm33.45-84.73q-6.84.89-11.25-1.9t-5.31-9.62a8.28,8.28,0,0,1,1.14-5.47,5.25,5.25,0,0,1,3.81-2.81c.6-.08,1,.33,1.09,1.24a9.2,9.2,0,0,1,0,2,9.06,9.06,0,0,0,0,2,8.48,8.48,0,0,0,4,6.33,11.41,11.41,0,0,0,8,1.62,34.84,34.84,0,0,0,11.82-3.51q5-2.61,9.26-9a24.14,24.14,0,0,0,2.23-4.23c.33-1,.65-1.48,1-1.52q1.14-.15.69,1.77-1.63,10.63-9.46,16.29A36.86,36.86,0,0,1,797.4,343.63Z" transform="translate(-68.53 -170.13)"/></g></svg>