<svg id="Layer_1" data-name="Layer 1" xmlns="http://www.w3.org/2000/svg" viewBox="0 0 1559.75 676.84"><defs><style>.cls-1,.cls-3{fill:#1d59a0;}.cls-2{fill:#231f20;}.cls-2,.cls-3,.cls-4{fill-rule:evenodd;}.cls-4{fill:#265296;}</style></defs><path class="cls-1" d="M853.77,838.75H886.9V775.42h34.94c25,0,26.37,8.57,26.37,30.65,0,16.68,1.35,25,3.6,32.68h37.41v-4.28c-7.21-2.7-7.21-8.56-7.21-32.23,0-30.2-7.21-35.16-20.51-41,16-5.41,25-20.73,25-38.54,0-14-7.89-45.75-50.94-45.75H853.77V838.75Zm33.13-90.6V704.88h42.15c19.83,0,23.66,12.62,23.66,21.18,0,16-8.56,22.09-26.14,22.09Zm197.66,55.44c-2.48,8.57-11.49,13.08-20.28,13.08-25.47,0-27.27-20.29-28.18-29.3h82.27v-5.64c0-54.76-32.68-66-56.35-66-52.51,0-57.47,46.2-57.47,60.62,0,49.36,25.92,65.63,59.73,65.63,20.51,0,44.4-9.51,52.74-38.36ZM1037,766.86c1.8-15.78,9.69-25.25,24.56-25.25,10.14,0,22.54,5.86,24.34,25.25Zm201-11.5c-2.47-33.8-30.42-39.66-53.86-39.66-37.42,0-48.46,22.53-48.46,40.11,0,44.85,74.38,29.75,74.38,49.81,0,4.51-3.83,12.4-20.06,12.4-19.84,0-26.14-7.44-26.14-17.58h-32.46c.9,32,30.43,41.51,57.7,41.51,18.7,0,52.51-6.35,52.51-41.29,0-44.17-75.05-30.42-75.05-49.35,0-5.19,2.25-11.72,19.38-11.72s19.84,8.11,21.19,15.77Zm27.5-36.51v119.9h31.56V718.85Zm31.56-43.5h-31.56v29.3h31.56v-29.3Zm65.58,11h-31.55v32.45H1314.9v22.54h16.23v72.8c0,15.55,5,25.95,32.23,25.95h4.05c5,0,9.92-.22,14.88-.45V815.76c-2.26.23-4.51.46-6.54.46-12.84,0-13.07-2.71-13.07-9.7V741.39h19.61V718.85h-19.61V686.4Zm136.81,64c0-29.52-30.88-34.7-47.78-34.7-24.57,0-50,5.18-53.64,41.92h30.42c.9-7,3.61-16.68,19.38-16.68,8.12,0,20.74.67,20.74,14,0,6.76-6.08,8.79-11,9.47l-28.4,4.28c-20.06,2.93-34.94,14.88-34.94,38.32,0,24.79,18.49,35,36.52,35,21.41,0,31.55-10,38.76-17.4a52.93,52.93,0,0,0,2.93,14.2h34V834c-3.83-1.35-7-4.51-7-18.71V750.4Zm-30.88,45.31c0,14.65-14.2,23.66-28.17,23.66-6.09,0-14.65-3.38-14.65-14.42,0-13.08,9.69-16,21.41-18,13.07-2,18.25-4.06,21.41-6.54v15.33Z" transform="translate(-207.38 -211.4)"/><path class="cls-2" d="M924.91,347.86c17.32,0,25.72-6,25.72-21.84,0-8.48-3.76-20.95-23.29-20.95H885.86v42.79Zm-71.7-70.42h80.54c42.4,0,50.17,31.41,50.17,45.22,0,17.63-8.86,32.76-24.63,38.13,13.09,5.79,20.19,10.7,20.19,40.56,0,23.39,0,29.19,7.12,31.87v4.24H949.75c-2.21-7.59-3.55-15.83-3.55-32.33,0-21.84-1.33-30.32-26-30.32H885.86v62.65H853.21v-160Z" transform="translate(-207.38 -211.4)"/><path class="cls-2" d="M1076.25,379.73c-3.1,2.47-8.2,4.45-21.08,6.46-11.54,2-21.07,4.91-21.07,17.84,0,10.92,8.4,14.25,14.42,14.25,13.76,0,27.73-8.91,27.73-23.4V379.73Zm30.43,34.55c0,14,3.06,17.18,6.86,18.48v4.7h-33.49a51.83,51.83,0,0,1-2.92-14.06c-7.11,7.38-17.07,17.17-38.18,17.17-17.74,0-35.93-10-35.93-34.56,0-23.18,14.64-35,34.38-37.87l28-4.25c4.89-.67,10.88-2.68,10.88-9.36,0-13.14-12.42-13.81-20.41-13.81-15.52,0-18.22,9.61-19.1,16.5h-30c3.56-36.33,28.61-41.45,52.82-41.45,16.64,0,47.07,5.13,47.07,34.31v64.2Z" transform="translate(-207.38 -211.4)"/><path class="cls-2" d="M1185,415c19.74,0,27.52-16.5,27.52-34.13,0-18.9-5.32-38.09-26.64-38.09-19.74,0-26.42,17.6-26.42,36.32,0,14.07,5.55,35.9,25.54,35.9Zm57.25,22.51h-30.4V422.51h-.43c-7.56,13.36-21.31,18.06-34.2,18.06-35.08,0-49.71-31.2-49.71-63.75,0-41,23.08-61.05,49-61.05,20,0,29.27,10.92,34.17,18.48h.45V277.44h31.07v160Z" transform="translate(-207.38 -211.4)"/><path class="cls-2" d="M1302,318.88V437.46h-31.06V318.88Zm0-14h-31.06v-29H1302v29Z" transform="translate(-207.38 -211.4)"/><path class="cls-2" d="M1385.17,342.06c-24,0-28.4,20.95-28.4,36.11s4.44,36.11,28.4,36.11,28.42-20.95,28.42-36.11-4.46-36.11-28.42-36.11Zm0,98.51c-31.74,0-60.38-19.61-60.38-62.4s28.64-62.4,60.38-62.4,60.33,19.61,60.33,62.4-28.61,62.4-60.33,62.4Z" transform="translate(-207.38 -211.4)"/><path class="cls-2" d="M924.91,548.44c17.32,0,25.72-6,25.72-21.83,0-8.49-3.76-21-23.29-21H885.86v42.79ZM853.21,478h80.54c42.4,0,50.17,31.41,50.17,45.23,0,17.59-8.86,32.75-24.63,38.12,13.09,5.8,20.19,10.71,20.19,40.53,0,23.42,0,29.22,7.12,31.9V638H949.75c-2.21-7.56-3.55-15.79-3.55-32.3,0-21.83-1.33-30.31-26-30.31H885.86V638H853.21V478Z" transform="translate(-207.38 -211.4)"/><path class="cls-2" d="M1064.49,542.64c-24,0-28.38,21-28.38,36.12s4.42,36.07,28.38,36.07,28.4-21,28.4-36.07-4.44-36.12-28.4-36.12Zm0,98.52c-31.73,0-60.37-19.61-60.37-62.4s28.64-62.44,60.37-62.44,60.34,19.65,60.34,62.44-28.6,62.4-60.34,62.4Z" transform="translate(-207.38 -211.4)"/><path class="cls-2" d="M1315.5,638h-31.08V566c0-17.6-7.77-23.4-16.88-23.4-15.52,0-21.07,10.25-21.07,24.28V638h-31v-71.3c0-10,0-24.07-18.65-24.07-14.67,0-19.33,10.25-19.33,23.19V638h-31.09V519.46h29.77v17.39h.42c4-7.81,12.66-20.53,33.53-20.53,17.1,0,24.84,6.26,32.82,19,4-5.8,12.67-19,31.53-19,23.08,0,41.06,13.6,41.06,39.68v82Z" transform="translate(-207.38 -211.4)"/><path class="cls-2" d="M1409.16,580.31c-3.13,2.44-8.24,4.45-21.11,6.47-11.54,2-21.07,4.91-21.07,17.8,0,10.92,8.44,14.28,14.42,14.28,13.75,0,27.76-8.9,27.76-23.39V580.31Zm21.3-76.88h-25.1l-14.17-18.31-14,18.31h-25.09l25.33-32.54h27.72l25.32,32.54Zm9.1,111.4c0,14.07,3.09,17.17,6.9,18.52V638h-33.53a51.39,51.39,0,0,1-2.89-14c-7.1,7.35-17.11,17.18-38.18,17.18-17.77,0-35.93-10-35.93-34.56,0-23.18,14.61-35,34.38-37.88l28-4.24c4.9-.67,10.88-2.68,10.88-9.36,0-13.15-12.42-13.82-20.43-13.82-15.53,0-18.2,9.58-19.08,16.51h-29.94c3.51-36.33,28.6-41.49,52.8-41.49,16.65,0,47,5.16,47,34.34v64.17Z" transform="translate(-207.38 -211.4)"/><path class="cls-2" d="M1574,638H1543V566c0-8.69-.46-23.4-20.22-23.4-13.73,0-24.39,9.37-24.39,27.43V638h-31.06V519.46h29.76v17.39h.42c4.22-7.14,13.09-20.53,35.49-20.53,23.12,0,41.07,13.6,41.07,39.68v82Z" transform="translate(-207.38 -211.4)"/><path class="cls-2" d="M1634.83,519.46V638h-31.07V519.46Zm0-14h-31.07v-29h31.07v29Z" transform="translate(-207.38 -211.4)"/><path class="cls-2" d="M1729.83,580.31c-3.14,2.44-8.24,4.45-21.12,6.47-11.54,2-21.08,4.91-21.08,17.8,0,10.92,8.46,14.28,14.44,14.28,13.79,0,27.76-8.9,27.76-23.39V580.31Zm30.4,34.52c0,14.07,3.09,17.17,6.9,18.52V638h-33.54a52.92,52.92,0,0,1-2.89-14c-7.09,7.35-17.09,17.18-38.17,17.18-17.76,0-35.92-10-35.92-34.56,0-23.18,14.6-35,34.38-37.88l28-4.24c4.9-.67,10.88-2.68,10.88-9.36,0-13.15-12.42-13.82-20.44-13.82-15.52,0-18.2,9.58-19.07,16.51h-29.94c3.51-36.33,28.6-41.49,52.8-41.49,16.65,0,47,5.16,47,34.34v64.17Z" transform="translate(-207.38 -211.4)"/><path class="cls-3" d="M633.31,211.4H463.9q-28.45,29.94-54.68,63.42C283.05,436.29,217.47,634.51,209.69,836.9l-.1,8h87.46c19-177.09,83.11-347.89,194.33-490.17A848.52,848.52,0,0,1,633.31,211.4Z" transform="translate(-207.38 -211.4)"/><path class="cls-3" d="M280.17,211.4C190.48,345.59,209,484.07,209,484.07c30.9-97.28,76.84-189.53,138-272.67Z" transform="translate(-207.38 -211.4)"/><path class="cls-3" d="M564.77,377.68c-111.46,134.51-179.62,297-205.69,467.17H494.54c35-128,95.29-248.68,181.45-352.62a857.48,857.48,0,0,1,70.33-75.33V213.55C680.46,257.36,619.2,312,564.77,377.68Z" transform="translate(-207.38 -211.4)"/><path class="cls-4" d="M536.34,844.85h210V484.53c-13.4,14.13-26.53,28.83-39.2,44.12-78,94.06-134.72,201.72-170.78,316.2Z" transform="translate(-207.38 -211.4)"/><polygon class="cls-3" points="960.93 641.2 991.84 641.06 971.1 676.84 951.97 676.17 960.93 641.2 960.93 641.2"/><polygon class="cls-3" points="1130.44 641.2 1161.35 641.06 1140.61 676.84 1121.47 676.17 1130.44 641.2 1130.44 641.2"/></svg>